<svg xmlns="http://www.w3.org/2000/svg" xmlns:xlink="http://www.w3.org/1999/xlink" version="1.1" id="Layer_1" x="0px" y="0px" width="100px" height="100px" viewBox="0 0 100 100" enable-background="new 0 0 100 100" xml:space="preserve">
<path d="M80.62,36.294c-1.724,0-3.388,0.248-4.979,0.671l-2.873-7.903c-0.67-1.917-0.57-3.548,0.299-4.853  c0.861-1.295,2.277-1.991,2.547-2.066C76.523,21.888,76.329,19,75.379,19h-10.75c-0.665,0-1.204,0.334-1.204,1s0.539,1,1.204,1  h6.264c0,0-0.383,0.698-0.561,0.948C69.454,23.186,68.621,25,68.967,28H36.109l-1.25-3.104l6.301-2.629  c0.644-0.266,0.573-1.351-0.099-1.351l-14.89-0.028c0.28,2.755,2.654,4.955,5.447,5.142l0.845,2.07L27.1,37.903  c-2.362-1.028-4.964-1.605-7.701-1.605C8.702,36.298,0,44.993,0,55.681c0,10.692,8.702,19.391,19.399,19.391  c10.241,0,18.631-7.994,19.313-18.071h4.922c1.623,0,3.272-0.463,4.646-1.668c0.801-0.703,17.537-14.855,23.243-19.714l0.91,2.511  c-6.611,3.092-11.214,9.785-11.214,17.548c0,10.691,8.703,19.39,19.399,19.39c10.686,0,19.38-8.698,19.38-19.39  C100,44.989,91.306,36.294,80.62,36.294z M19.399,71.285c-8.609,0-15.614-7-15.614-15.604c0-8.6,7.004-15.597,15.614-15.597  c2.079,0,4.06,0.417,5.875,1.158l-7.395,13.517c-0.291,0.533-0.279,1.078,0.031,1.6C18.221,56.881,18.783,57,19.39,57h15.538  C34.254,64.988,27.554,71.285,19.399,71.285z M28.33,42.914c3.59,2.52,6.077,6.505,6.57,11.086H22.287L28.33,42.914z M38.695,54  c-0.52-6.011-3.784-11.247-8.542-14.433l3.987-7.315L43.009,54H38.695z M46.234,52.571L37.512,31h32.429l0.328,0.993  C65.999,35.629,48.535,50.592,46.234,52.571z M80.62,71.281c-8.61,0-15.614-7-15.614-15.604c0-6.128,3.564-11.427,8.724-13.976  l5.264,14.518c0.254,0.699,0.914,1.158,1.617,1.158c0.195,0,0.394-0.021,0.588-0.092c0.893-0.325,1.354-1.305,1.029-2.199  l-5.289-14.551c1.183-0.287,2.411-0.456,3.682-0.456c8.599,0,15.595,6.998,15.595,15.598C96.215,64.281,89.219,71.281,80.62,71.281z  "/>
</svg>